<?xml version="1.0" encoding="UTF-8" standalone="no"?>
<!-- Created with Inkscape (http://www.inkscape.org/) -->

<svg xmlns:dc="http://purl.org/dc/elements/1.1/" xmlns:cc="http://creativecommons.org/ns#" xmlns:rdf="http://www.w3.org/1999/02/22-rdf-syntax-ns#" xmlns:svg="http://www.w3.org/2000/svg" xmlns="http://www.w3.org/2000/svg" xmlns:sodipodi="http://sodipodi.sourceforge.net/DTD/sodipodi-0.dtd" xmlns:inkscape="http://www.inkscape.org/namespaces/inkscape" width="24" height="24" id="svg2" version="1.1" inkscape:version="0.47 r22583" sodipodi:docname="num-lock-on.svg">
  <defs id="defs4">
    <inkscape:perspective sodipodi:type="inkscape:persp3d" inkscape:vp_x="0 : 526.18109 : 1" inkscape:vp_y="0 : 1000 : 0" inkscape:vp_z="744.09448 : 526.18109 : 1" inkscape:persp3d-origin="372.04724 : 350.78739 : 1" id="perspective10" />
  </defs>
  <sodipodi:namedview id="base" pagecolor="#ffffff" bordercolor="#666666" borderopacity="1.0" inkscape:pageopacity="0.0" inkscape:pageshadow="2" inkscape:zoom="16" inkscape:cx="5.0625" inkscape:cy="11.113281" inkscape:document-units="px" inkscape:current-layer="layer1" showgrid="false" showguides="true" inkscape:snap-to-guides="false" inkscape:window-width="1280" inkscape:window-height="728" inkscape:window-x="0" inkscape:window-y="18" inkscape:window-maximized="1" inkscape:snap-grids="true">
    <inkscape:grid type="xygrid" id="grid2826" empspacing="5" visible="true" enabled="true" snapvisiblegridlinesonly="true" />
  </sodipodi:namedview>
  <metadata id="metadata7">
    <rdf:RDF>
      <cc:Work rdf:about="">
        <dc:format>image/svg+xml</dc:format>
        <dc:type rdf:resource="http://purl.org/dc/dcmitype/StillImage" />
        <dc:title />
      </cc:Work>
    </rdf:RDF>
  </metadata>
  <g inkscape:label="Layer 1" inkscape:groupmode="layer" id="layer1" transform="translate(0,-1028.3622)">
    <g id="g2817" transform="matrix(0.80000007,0,0,0.80424218,2.3999998,203.6063)">
      <rect ry="1.7273395" rx="1.7273391" y="1030.8618" x="2.4996331" height="19.000734" width="19.000732" id="rect2828" style="opacity:0.6;fill:black;fill-opacity:0;fill-rule:evenodd;stroke:#3a3935;stroke-width:0.99926591;stroke-linecap:butt;stroke-linejoin:miter;stroke-miterlimit:4;stroke-opacity:1;stroke-dasharray:none" />
      <text transform="scale(0.97962531,1.0207984)" id="text2822" y="1026.0226" x="6.0995293" style="font-size:18.81300545px;font-style:normal;font-weight:normal;opacity:0.6;fill:#3a3935;fill-opacity:1;stroke:none;font-family:Bitstream Vera Sans" xml:space="preserve"><tspan y="1026.0226" x="6.0995293" id="tspan2824" sodipodi:role="line">1</tspan></text>
      <path transform="translate(0,1028.3622)" id="path4269" d="M 3.75625,20.856091 C 3.453689,20.71645 3.2632752,20.51859 3.134233,20.209748 3.0486378,20.00489 3.0375,19.060253 3.0375,12.005469 3.0375,4.9506853 3.0486378,4.0060477 3.134233,3.8011896 3.2632752,3.4923482 3.453689,3.2944876 3.75625,3.1548467 3.9951806,3.0445731 4.3604726,3.0394642 12.00625,3.0394642 19.634244,3.0394642 20.017996,3.0447995 20.258836,3.154198 20.565152,3.2933383 20.82334,3.5868969 20.913817,3.8989106 20.960566,4.0601239 20.975311,6.5639031 20.962357,12.140725 L 20.94375,20.15098 20.755414,20.421975 C 20.645311,20.580401 20.451587,20.751383 20.289046,20.833594 L 20.011014,20.974219 12.008632,20.972846 C 4.362158,20.971535 3.9951312,20.966342 3.75625,20.856091 z M 16.0375,18.224219 16.0375,17.411719 14.5375,17.411719 13.0375,17.411719 13.0375,11.192969 13.0375,4.974219 12.124648,4.974219 C 11.269946,4.974219 11.11567,4.994259 9.7027731,5.2888133 8.8728104,5.4618402 8.1445312,5.6184229 8.084375,5.636775 7.9870384,5.6664698 7.975,5.7659866 7.975,6.5409307 7.975,7.2176316 7.9932681,7.411719 8.0569611,7.411719 8.1020397,7.411719 8.8076788,7.271094 9.6250481,7.099219 10.442417,6.927344 11.136784,6.786719 11.168087,6.786719 11.201858,6.786719 11.225,8.9468746 11.225,12.099219 L 11.225,17.411719 9.725,17.411719 8.225,17.411719 8.225,18.224219 8.225,19.036719 12.13125,19.036719 16.0375,19.036719 16.0375,18.224219 z" style="fill:#eae3d0;fill-opacity:1;fill-rule:evenodd;stroke:#eae3d0;stroke-width:0.0625;stroke-miterlimit:4;stroke-opacity:1;stroke-dasharray:none" />
    </g>
  </g>
</svg>
