<?xml version="1.0" encoding="UTF-8" standalone="no"?>
<!-- Created with Inkscape (http://www.inkscape.org/) -->

<svg xmlns:dc="http://purl.org/dc/elements/1.1/" xmlns:cc="http://creativecommons.org/ns#" xmlns:rdf="http://www.w3.org/1999/02/22-rdf-syntax-ns#" xmlns:svg="http://www.w3.org/2000/svg" xmlns="http://www.w3.org/2000/svg" xmlns:sodipodi="http://sodipodi.sourceforge.net/DTD/sodipodi-0.dtd" xmlns:inkscape="http://www.inkscape.org/namespaces/inkscape" width="24" height="24" id="svg2" version="1.1" inkscape:version="0.47 r22583" sodipodi:docname="scroll-lock-on.svg">
  <defs id="defs4">
    <inkscape:perspective sodipodi:type="inkscape:persp3d" inkscape:vp_x="0 : 526.18109 : 1" inkscape:vp_y="0 : 1000 : 0" inkscape:vp_z="744.09448 : 526.18109 : 1" inkscape:persp3d-origin="372.04724 : 350.78739 : 1" id="perspective10" />
  </defs>
  <sodipodi:namedview id="base" pagecolor="#ffffff" bordercolor="#666666" borderopacity="1.0" inkscape:pageopacity="0.0" inkscape:pageshadow="2" inkscape:zoom="9.6966506" inkscape:cx="-16.359794" inkscape:cy="11.36171" inkscape:document-units="px" inkscape:current-layer="layer1" showgrid="false" showguides="true" inkscape:snap-to-guides="false" inkscape:window-width="1280" inkscape:window-height="717" inkscape:window-x="0" inkscape:window-y="24" inkscape:window-maximized="1" inkscape:snap-grids="true" inkscape:snap-bbox="false" inkscape:bbox-paths="false" inkscape:bbox-nodes="false" inkscape:snap-nodes="false">
    <inkscape:grid type="xygrid" id="grid2826" empspacing="5" visible="true" enabled="true" snapvisiblegridlinesonly="true" />
  </sodipodi:namedview>
  <metadata id="metadata7">
    <rdf:RDF>
      <cc:Work rdf:about="">
        <dc:format>image/svg+xml</dc:format>
        <dc:type rdf:resource="http://purl.org/dc/dcmitype/StillImage" />
        <dc:title />
      </cc:Work>
    </rdf:RDF>
  </metadata>
  <g inkscape:label="Layer 1" inkscape:groupmode="layer" id="layer1" transform="translate(0,-1028.3622)">
    <rect style="opacity:0.60000023999999996;fill:black;fill-opacity:0;fill-rule:evenodd;stroke:#3a3935;stroke-width:0.80209034999999995;stroke-linecap:butt;stroke-linejoin:miter;stroke-miterlimit:4;stroke-opacity:1;stroke-dasharray:none" id="rect2828" width="15.200029" height="15.280687" x="4.3999853" y="1032.6691" rx="1.3818207" ry="1.3891534" />
    <path style="opacity:1;fill:#eae3d0;fill-opacity:1;fill-rule:evenodd;stroke:#eae3d0;stroke-width:0.77994090000000005;stroke-linejoin:miter;stroke-miterlimit:3;stroke-opacity:1;stroke-dasharray:none" d="M 12.140773,1035.0704 12.140773,1035.0704 16.411354,1039.1138 7.5892333,1039.1138 12.140773,1035.0704 z" id="rect4985" sodipodi:nodetypes="ccccc" />
    <rect style="opacity:1;fill:#eae3d0;fill-opacity:1;fill-rule:evenodd;stroke:#eae3d0;stroke-width:0.79651791000000005;stroke-linecap:butt;stroke-linejoin:miter;stroke-miterlimit:3;stroke-opacity:1;stroke-dasharray:none;stroke-dashoffset:0" id="rect4988" width="4.0055876" height="5.6353326" x="9.9975004" y="1039.9042" />
    <path style="fill:#dc0000;fill-opacity:1;fill-rule:evenodd;stroke:#3a3935;stroke-width:0;stroke-linecap:butt;stroke-linejoin:miter;stroke-miterlimit:3;stroke-opacity:1;stroke-dasharray:none;stroke-dashoffset:0" d="M 5.4234956,1047.4111 C 5.1912009,1047.3024 4.9784907,1047.0887 4.9031822,1046.8882 4.8667186,1046.7912 4.8501549,1044.7325 4.8501549,1040.2977 4.8501549,1033.9136 4.8511828,1033.8462 4.9516195,1033.6375 5.0093257,1033.5176 5.1418661,1033.3648 5.2589461,1033.2832 L 5.4648079,1033.1397 11.916951,1033.1266 C 18.153681,1033.1139 18.376215,1033.1167 18.582369,1033.2084 18.851041,1033.3279 19.040795,1033.5754 19.108503,1033.8945 19.144281,1034.0631 19.156762,1036.1656 19.147476,1040.4606 L 19.133819,1046.7786 18.997156,1047.0125 C 18.921992,1047.1411 18.776164,1047.299 18.673094,1047.3635 L 18.485694,1047.4806 12.054306,1047.4925 C 5.8754408,1047.5039 5.6150883,1047.5007 5.4234956,1047.4111 z M 14.422453,1042.7421 14.422453,1039.5329 15.897351,1039.5329 C 16.780318,1039.5329 17.36558,1039.5144 17.35563,1039.4865 17.34649,1039.461 16.464045,1038.6118 15.394639,1037.5995 14.325234,1036.5873 13.154494,1035.4785 12.792994,1035.1357 L 12.135724,1034.5125 9.3674856,1036.974 C 7.8449549,1038.3279 6.585774,1039.4575 6.5693062,1039.4843 6.5501752,1039.5154 7.0894517,1039.5329 8.0629063,1039.5329 L 9.5864481,1039.5329 9.5864481,1042.7421 9.5864481,1045.9513 12.00445,1045.9513 14.422453,1045.9513 14.422453,1042.7421 z" id="path5173" />
  </g>
</svg>
