<?xml version="1.0" encoding="UTF-8" standalone="no"?>
<!-- Created with Inkscape (http://www.inkscape.org/) -->

<svg xmlns:dc="http://purl.org/dc/elements/1.1/" xmlns:cc="http://creativecommons.org/ns#" xmlns:rdf="http://www.w3.org/1999/02/22-rdf-syntax-ns#" xmlns:svg="http://www.w3.org/2000/svg" xmlns="http://www.w3.org/2000/svg" xmlns:sodipodi="http://sodipodi.sourceforge.net/DTD/sodipodi-0.dtd" xmlns:inkscape="http://www.inkscape.org/namespaces/inkscape" width="24" height="24" id="svg2" version="1.1" inkscape:version="0.47 r22583" sodipodi:docname="caps-lock-on.svg">
  <defs id="defs4">
    <inkscape:perspective sodipodi:type="inkscape:persp3d" inkscape:vp_x="0 : 526.18109 : 1" inkscape:vp_y="0 : 1000 : 0" inkscape:vp_z="744.09448 : 526.18109 : 1" inkscape:persp3d-origin="372.04724 : 350.78739 : 1" id="perspective10" />
  </defs>
  <sodipodi:namedview id="base" pagecolor="#ffffff" bordercolor="#666666" borderopacity="1.0" inkscape:pageopacity="0.0" inkscape:pageshadow="2" inkscape:zoom="22.627417" inkscape:cx="3.7677498" inkscape:cy="11.36171" inkscape:document-units="px" inkscape:current-layer="layer1" showgrid="false" showguides="true" inkscape:snap-to-guides="false" inkscape:window-width="1280" inkscape:window-height="717" inkscape:window-x="0" inkscape:window-y="24" inkscape:window-maximized="1" inkscape:snap-grids="true">
    <inkscape:grid type="xygrid" id="grid2826" empspacing="5" visible="true" enabled="true" snapvisiblegridlinesonly="true" />
  </sodipodi:namedview>
  <metadata id="metadata7">
    <rdf:RDF>
      <cc:Work rdf:about="">
        <dc:format>image/svg+xml</dc:format>
        <dc:type rdf:resource="http://purl.org/dc/dcmitype/StillImage" />
        <dc:title />
      </cc:Work>
    </rdf:RDF>
  </metadata>
  <g inkscape:label="Layer 1" inkscape:groupmode="layer" id="layer1" transform="translate(0,-1028.3622)">
    <rect style="opacity:0.6;fill:black;fill-opacity:0;fill-rule:evenodd;stroke:#eae3d0;stroke-width:0.80152947;stroke-linecap:butt;stroke-linejoin:miter;stroke-miterlimit:4;stroke-opacity:1;stroke-dasharray:none" id="rect2828" width="15.200587" height="15.281192" x="4.3997064" y="1032.6688" rx="1.3818715" ry="1.3891993" />
    <text xml:space="preserve" style="font-size:16.09249877999999967px;font-style:normal;font-weight:normal;opacity:1;fill:#eae3d0;fill-opacity:1;stroke:none;font-family:Bitstream Vera Sans" x="6.0167255" y="1089.7952" id="text3610" transform="scale(1.0419298,0.95975759)"><tspan sodipodi:role="line" id="tspan3612" x="6.0167255" y="1089.7952">A</tspan></text>
    <path style="fill:#dc0000;fill-opacity:1;fill-rule:evenodd;stroke:#eae3d0;stroke-width:0.05013239000000000;stroke-miterlimit:4;stroke-opacity:1;stroke-dasharray:none" d="M 5.4177377,1047.4333 C 5.1847707,1047.3244 4.971445,1047.1102 4.8959185,1046.9092 4.8593492,1046.8119 4.8427376,1044.7483 4.8427376,1040.3026 4.8427376,1033.9031 4.8437685,1033.8354 4.9444959,1033.6263 5.0023691,1033.5061 5.1352931,1033.3529 5.252712,1033.2711 L 5.4591696,1033.1273 11.929985,1033.1141 C 18.184765,1033.1014 18.407943,1033.1042 18.614693,1033.1961 18.884144,1033.3159 19.074447,1033.564 19.14235,1033.8839 19.178232,1034.0529 19.190748,1036.1606 19.181436,1040.466 L 19.167739,1046.7994 19.030681,1047.0338 C 18.9553,1047.1627 18.809049,1047.321 18.705681,1047.3856 L 18.517739,1047.5031 12.067738,1047.5149 C 5.8709908,1047.5263 5.6098849,1047.5231 5.4177377,1047.4333 z M 8.7169115,1044.537 9.266085,1043.1049 12.016912,1043.1058 14.767738,1043.1068 15.313517,1044.5384 15.859295,1045.97 16.748224,1045.97 17.637154,1045.97 17.402447,1045.4008 C 17.273357,1045.0877 16.222739,1042.5436 15.067739,1039.7472 L 12.967738,1034.6629 12.010588,1034.6616 C 11.290745,1034.6607 11.047149,1034.6759 11.028078,1034.7232 11.014131,1034.7577 9.973935,1037.2628 8.7165326,1040.29 7.4591299,1043.3173 6.4192599,1045.8337 6.4057102,1045.882 6.3829052,1045.9635 6.4474542,1045.97 7.2744063,1045.9696 L 8.1677379,1045.9692 8.7169115,1044.537 z" id="path4977" />
    <path style="fill:#dc0000;fill-opacity:1;fill-rule:evenodd;stroke:#eae3d0;stroke-width:0.05013239000000000;stroke-miterlimit:4;stroke-opacity:1;stroke-dasharray:none" d="M 10.884274,1039.0346 C 11.48018,1037.5423 11.980853,1036.3209 11.996882,1036.3202 12.017595,1036.3194 13.851191,1040.8264 14.179415,1041.6849 14.198409,1041.7346 13.742653,1041.7477 12.002124,1041.7477 L 9.8008104,1041.7477 10.884274,1039.0346 z" id="path4979" />
  </g>
</svg>
