<?xml version="1.0" encoding="UTF-8" standalone="no"?>
<!-- Created with Inkscape (http://www.inkscape.org/) -->

<svg xmlns:dc="http://purl.org/dc/elements/1.1/" xmlns:cc="http://creativecommons.org/ns#" xmlns:rdf="http://www.w3.org/1999/02/22-rdf-syntax-ns#" xmlns:svg="http://www.w3.org/2000/svg" xmlns="http://www.w3.org/2000/svg" xmlns:sodipodi="http://sodipodi.sourceforge.net/DTD/sodipodi-0.dtd" xmlns:inkscape="http://www.inkscape.org/namespaces/inkscape" width="24" height="24" id="svg2" version="1.1" inkscape:version="0.47 r22583" sodipodi:docname="num-lock-on.svg">
  <defs id="defs4">
    <inkscape:perspective sodipodi:type="inkscape:persp3d" inkscape:vp_x="0 : 526.18109 : 1" inkscape:vp_y="0 : 1000 : 0" inkscape:vp_z="744.09448 : 526.18109 : 1" inkscape:persp3d-origin="372.04724 : 350.78739 : 1" id="perspective10" />
  </defs>
  <sodipodi:namedview id="base" pagecolor="#ffffff" bordercolor="#666666" borderopacity="1.0" inkscape:pageopacity="0.0" inkscape:pageshadow="2" inkscape:zoom="29.625" inkscape:cx="-0.22020042" inkscape:cy="11.113281" inkscape:document-units="px" inkscape:current-layer="layer1" showgrid="false" showguides="true" inkscape:snap-to-guides="false" inkscape:window-width="1280" inkscape:window-height="717" inkscape:window-x="0" inkscape:window-y="24" inkscape:window-maximized="1" inkscape:snap-grids="true">
    <inkscape:grid type="xygrid" id="grid2826" empspacing="5" visible="true" enabled="true" snapvisiblegridlinesonly="true" />
  </sodipodi:namedview>
  <metadata id="metadata7">
    <rdf:RDF>
      <cc:Work rdf:about="">
        <dc:format>image/svg+xml</dc:format>
        <dc:type rdf:resource="http://purl.org/dc/dcmitype/StillImage" />
        <dc:title />
      </cc:Work>
    </rdf:RDF>
  </metadata>
  <g inkscape:label="Layer 1" inkscape:groupmode="layer" id="layer1" transform="translate(0,-1028.3622)">
    <rect style="opacity:0.6;fill:black;fill-opacity:0;fill-rule:evenodd;stroke:#eae3d0;stroke-width:0.80152947;stroke-linecap:butt;stroke-linejoin:miter;stroke-miterlimit:4;stroke-opacity:1;stroke-dasharray:none" id="rect2828" width="15.200587" height="15.281192" x="4.3997064" y="1032.6688" rx="1.3818715" ry="1.3891993" />
    <text xml:space="preserve" style="font-size:15.09025573999999992px;font-style:normal;font-weight:normal;opacity:1;fill:#eae3d0;fill-opacity:1;stroke:none;font-family:Bitstream Vera Sans" x="7.348947" y="1021.9227" id="text2822" transform="scale(0.97703832,1.0235013)"><tspan sodipodi:role="line" id="tspan2824" x="7.348947" y="1021.9227">1</tspan></text>
    <path style="fill:#dc0000;fill-opacity:1;fill-rule:evenodd;stroke:none;stroke-width:0.05013239000000000;stroke-miterlimit:4;stroke-opacity:1;stroke-dasharray:none" d="M 5.4050001,1047.4319 C 5.1629512,1047.3196 5.0106202,1047.1605 4.9073864,1046.9121 4.8389103,1046.7474 4.83,1045.9877 4.83,1040.3139 4.83,1034.6401 4.8389103,1033.8804 4.9073864,1033.7157 5.0106202,1033.4673 5.1629512,1033.3082 5.4050001,1033.1959 5.5961446,1033.1072 5.8883782,1033.1031 12.005001,1033.1031 18.107396,1033.1031 18.414398,1033.1074 18.60707,1033.1953 18.852123,1033.3072 19.058673,1033.5433 19.131055,1033.7943 19.168454,1033.9239 19.18025,1035.9376 19.169887,1040.4227 L 19.155001,1046.8649 19.004332,1047.0828 C 18.91625,1047.2102 18.761271,1047.3477 18.631238,1047.4139 L 18.408812,1047.527 12.006906,1047.5258 C 5.8897265,1047.5248 5.596105,1047.5206 5.4050001,1047.4319 z M 15.230001,1045.3153 15.230001,1044.6618 14.030001,1044.6618 12.830001,1044.6618 12.830001,1039.6605 12.830001,1034.6591 12.099719,1034.6591 C 11.415957,1034.6591 11.292537,1034.6752 10.162219,1034.9121 9.4982487,1035.0512 8.9156253,1035.1772 8.8675004,1035.1919 8.7896311,1035.2158 8.7800004,1035.2958 8.7800004,1035.9191 8.7800004,1036.4633 8.7946148,1036.6194 8.8455692,1036.6194 8.8816321,1036.6194 9.4461435,1036.5063 10.100039,1036.3681 10.753934,1036.2299 11.309428,1036.1168 11.33447,1036.1168 11.361487,1036.1168 11.380001,1037.8541 11.380001,1040.3893 L 11.380001,1044.6618 10.18,1044.6618 8.9800004,1044.6618 8.9800004,1045.3153 8.9800004,1045.9687 12.105001,1045.9687 15.230001,1045.9687 15.230001,1045.3153 z" id="path4269" />
  </g>
</svg>
